<svg xmlns="http://www.w3.org/2000/svg" xmlns:xlink="http://www.w3.org/1999/xlink" version="1.1" preserveAspectRatio="none" x="0px" y="0px" viewBox="0 0 100 125"><defs><g id="a"><path fill="#000000" stroke="none" d=" M 86.55 37.4 Q 86.5 36.15 86.4 35.85 86 35.15 84.4 35.15 L 47.85 34.95 Q 48.1 30.45 48 25.95 47.9 16.95 46.7 17.15 44.6 17.75 37.35 24.2 31.5 29.45 29.45 31.8 26.25 35.5 18.05 44.3 16.7 45.75 15.15 47.4 13.8 48.75 13.65 49 13.2 49.85 13.7 50.85 13.85 51.2 15.15 52.5 17.2 54.85 18.05 55.8 26.3 64.55 29.45 68.3 31.5 70.65 37.3 75.85 44.6 82.35 46.7 82.85 47.9 83.15 48.05 74.1 48.1 69.65 47.9 65.05 L 84.35 64.9 Q 86.05 64.9 86.35 64.2 86.5 63.95 86.6 62.65 L 86.55 37.4 M 84.4 37.55 L 84.35 62.5 44.9 62.45 45.05 79.4 Q 43.5 77.95 40.95 75.6 33.1 68.25 31.45 66.6 30.65 65.7 22.4 56.35 18.4 51.85 16.65 50 18.4 48.25 22.45 43.7 30.65 34.3 31.5 33.45 33.1 31.9 40.95 24.5 43.5 22.15 45.1 20.65 L 44.95 37.6 84.4 37.55 Z"/></g></defs><g transform="matrix( 1, 0, 0, 1, 0,0) "><use xlink:href="#a"/></g></svg>